<svg width="40" height="40" viewBox="0 0 40 40" fill="none" xmlns="http://www.w3.org/2000/svg">
<path d="M20 9.36667C17.4167 9.36667 15.3167 7.26667 15.3167 4.68333C15.3167 2.1 17.4167 0 20 0C22.5833 0 24.6833 2.1 24.6833 4.68333C24.6833 7.26667 22.5833 9.36667 20 9.36667Z" fill="#502D3C"/>
<path d="M20 40C17.4167 40 15.3167 37.9 15.3167 35.3166C15.3167 32.7333 17.4167 30.6333 20 30.6333C22.5833 30.6333 24.6833 32.7333 24.6833 35.3166C24.6833 37.9 22.5833 40 20 40Z" fill="#502D3C"/>
<path d="M4.68333 24.6583C2.1 24.6583 0 22.5583 0 19.975C0 17.3916 2.1 15.2916 4.68333 15.2916C7.26667 15.2916 9.36667 17.3916 9.36667 19.975C9.36667 22.5583 7.26667 24.6583 4.68333 24.6583Z" fill="#FCB61A"/>
<path d="M35.3167 24.6583C32.7333 24.6583 30.6333 22.5583 30.6333 19.975C30.6333 17.3916 32.7333 15.2916 35.3167 15.2916C37.9 15.2916 40 17.3916 40 19.975C40 22.5583 37.9 24.6583 35.3167 24.6583Z" fill="#FCB61A"/>
<path d="M6.96667 13.2334C6.74167 13.2334 6.51667 13.1751 6.30834 13.0501C5.71667 12.6917 5.54167 11.9167 5.9 11.3334C7.25 9.1334 9.13334 7.2584 11.325 5.9084C11.9083 5.55006 12.6833 5.72506 13.0417 6.31673C13.4 6.9084 13.2167 7.67506 12.6333 8.0334C10.7667 9.1834 9.175 10.7751 8.025 12.6417C7.79167 13.0251 7.38334 13.2334 6.96667 13.2334Z" fill="#E4826B"/>
<path d="M33.0333 13.2334C32.6167 13.2334 32.2083 13.0251 31.9667 12.6417C30.8167 10.7751 29.225 9.1834 27.3583 8.0334C26.7667 7.67506 26.5917 6.90006 26.95 6.31673C27.3167 5.72506 28.0833 5.55006 28.6667 5.9084C30.8583 7.2584 32.7333 9.14173 34.0917 11.3334C34.4583 11.9251 34.275 12.6917 33.6833 13.0501C33.4833 13.1751 33.2583 13.2334 33.0333 13.2334Z" fill="#E4826B"/>
<path d="M11.9833 34.2834C11.7583 34.2834 11.5333 34.225 11.325 34.1C9.13333 32.75 7.25833 30.875 5.89999 28.675C5.53333 28.0834 5.71666 27.3167 6.30833 26.9584C6.89166 26.5917 7.66666 26.775 8.025 27.3667C9.175 29.2334 10.7667 30.825 12.6333 31.975C13.225 32.3334 13.4 33.1084 13.0417 33.6917C12.8083 34.075 12.4 34.2834 11.9833 34.2834Z" fill="#E4826B"/>
<path d="M28.0167 34.2833C27.6 34.2833 27.1917 34.075 26.95 33.6917C26.5917 33.1 26.775 32.3333 27.3583 31.975C29.225 30.825 30.8167 29.2333 31.9667 27.3667C32.325 26.775 33.1 26.6 33.6833 26.9583C34.275 27.3167 34.45 28.0917 34.0917 28.675C32.7417 30.8667 30.8583 32.75 28.6667 34.1C28.4667 34.225 28.2417 34.2833 28.0167 34.2833Z" fill="#E4826B"/>
</svg>
